<?xml version="1.0" encoding="UTF-8"?>
<svg version="1.1" xmlns="http://www.w3.org/2000/svg" width="1920" height="438">
<path d="M0 0 C21.10490368 -0.02332704 42.20980525 -0.04097821 63.3147192 -0.05181217 C73.11338163 -0.05697554 82.91203606 -0.06401902 92.71069336 -0.07543945 C101.24798655 -0.08538503 109.78527395 -0.09185313 118.32257277 -0.09408849 C122.84589928 -0.09539582 127.36920922 -0.09848302 131.89253044 -0.10573006 C136.14497932 -0.11248829 140.39740473 -0.11461737 144.64985847 -0.11310768 C146.21523287 -0.1133841 147.78060801 -0.11539039 149.34597778 -0.11920547 C151.47388093 -0.12413967 153.60169401 -0.12299933 155.729599 -0.12025452 C156.92332091 -0.12117631 158.11704283 -0.1220981 159.34693813 -0.12304783 C162 0 162 0 163 1 C164.64863328 1.30940104 166.30747939 1.56470985 167.96875 1.796875 C169.00781494 1.94866211 170.04687988 2.10044922 171.11743164 2.25683594 C172.2336792 2.41958008 173.34992676 2.58232422 174.5 2.75 C184.99799965 4.33953612 194.94193144 6.62425209 205 10 C205 10.66 205 11.32 205 12 C205.65484375 12.07476562 206.3096875 12.14953125 206.984375 12.2265625 C216.67824661 13.62313722 225.0800178 16.97082676 232 24 C233.72210893 25.14718126 235.47453786 26.24975909 237.25 27.3125 C244.34783878 31.73208762 250.17715203 37.02784824 256 43 C256.53238281 43.49886719 257.06476563 43.99773438 257.61328125 44.51171875 C262.47667827 49.13787689 266.53526162 54.23947752 270 60 C270 60.66 270 61.32 270 62 C270.66 62 271.32 62 272 62 C272.70576172 63.35544922 272.70576172 63.35544922 273.42578125 64.73828125 C274.05439878 65.92983986 274.68332109 67.12123772 275.3125 68.3125 C275.62123047 68.90740234 275.92996094 69.50230469 276.24804688 70.11523438 C278.0667566 73.56429323 278.0667566 73.56429323 280.57421875 76.515625 C286.10525438 82.27396347 287.62369706 93.86072916 289.32421875 101.4765625 C289.88267327 103.94954127 289.88267327 103.94954127 290.98046875 105.8203125 C301.33122599 127.94951763 296.45553456 165.79853004 289.00390625 187.9609375 C287.97144217 190.95738845 287.97144217 190.95738845 287.27734375 193.9140625 C285.27059824 201.71919329 281.88608106 208.43064655 278.0625 215.5 C277.54816406 216.45640381 277.03382813 217.41280762 276.50390625 218.39819336 C273.78458944 223.296172 271.18178096 227.1989991 267 231 C265.47620747 232.79254361 263.97604406 234.60543827 262.5 236.4375 C261.71882813 237.39914063 260.93765625 238.36078125 260.1328125 239.3515625 C258.93338178 240.84096548 257.73756939 242.33335781 256.5546875 243.8359375 C253.43632132 247.73905809 249.85982837 250.86319423 246 254 C249.32050504 260.12682715 249.32050504 260.12682715 253.0625 266 C255.99912625 270.5470342 259 275.49616025 259 281 C259.66 281.33 260.32 281.66 261 282 C264.34078935 286.33399699 267.07442967 290.78909449 269.671875 295.59765625 C271.56017944 299.01326575 273.61343889 302.32302005 275.66796875 305.640625 C277 308 277 308 278.05078125 310.671875 C278.88167492 313.14021586 278.88167492 313.14021586 281 315 C285.32657686 320.87178289 287.67152976 327.14450394 290 334 C290.55695508 335.46045999 291.11885593 336.91905141 291.6875 338.375 C296.13252164 350.65172645 295.83817155 367.89461604 291 380 C290.00227572 381.66802999 289.00232029 383.33472771 288 385 C287.45208324 386.50423444 286.94897496 388.02582973 286.5 389.5625 C285.45238734 392.85342983 284.49547061 395.50452939 282 398 C281.34 398 280.68 398 280 398 C279.690625 399.0828125 279.690625 399.0828125 279.375 400.1875 C277.52471012 403.97218384 275.39759562 405.52258653 272 408 C271.34 408 270.68 408 270 408 C270 408.66 270 409.32 270 410 C250.6174309 421.53955558 250.6174309 421.53955558 240 423 C238.48599609 423.22429687 238.48599609 423.22429687 236.94140625 423.453125 C225.79568777 424.70821203 214.69784455 423.27569659 204 420 C204 419.34 204 418.68 204 418 C203.30261719 417.9071875 202.60523438 417.814375 201.88671875 417.71875 C189.90358509 414.73512809 178.20092615 403.89691215 171.8125 393.8125 C168.46945244 388.05652699 165.50771239 382.14040179 162.59375 376.16015625 C160.94779267 372.89648106 159.12301882 369.86070902 157.12109375 366.80859375 C155.52263537 364.22989608 154.25537313 361.51725202 152.9921875 358.76171875 C152.08819388 356.95739274 152.08819388 356.95739274 150.62890625 355.6875 C148.24641794 353.21931068 146.72100755 350.28801153 145.0625 347.3125 C144.70623535 346.68110107 144.3499707 346.04970215 143.98291016 345.39916992 C141.87627409 341.64228732 139.87031092 337.85550663 137.984375 333.984375 C134.92889316 327.8249116 131.65739645 321.84845973 127.75 316.1875 C125.47657516 312.88984991 124.15673607 309.85578692 123 306 C122.34 305.67 121.68 305.34 121 305 C119.55397709 302.72933751 118.1971871 300.46569166 116.875 298.125 C116.50246094 297.48691406 116.12992188 296.84882813 115.74609375 296.19140625 C113 291.3731685 113 291.3731685 113 288 C103.1 288.33 93.2 288.66 83 289 C83.01047363 292.32586182 83.02094727 295.65172363 83.03173828 299.07836914 C83.06488718 310.07060755 83.08697338 321.06284817 83.10362434 332.05512333 C83.1140587 338.71931493 83.12821169 345.38344533 83.15087891 352.04760742 C83.17261946 358.47962892 83.18457125 364.91160114 83.18975449 371.34365654 C83.19344804 373.7968263 83.20066059 376.24999339 83.21146011 378.70314217 C83.22599092 382.14077698 83.22797725 385.57820853 83.22705078 389.01586914 C83.23424133 390.02863419 83.24143188 391.04139923 83.24884033 392.08485413 C83.22778447 399.3114102 82.66091429 406.13626912 78 412 C70.35714286 418 70.35714286 418 66 418 C66 418.66 66 419.32 66 420 C29.7 420 -6.6 420 -44 420 C-44 419.34 -44 418.68 -44 418 C-44.66 417.95875 -45.32 417.9175 -46 417.875 C-51.69650397 416.21351968 -55.83397784 412.4949002 -59.4375 407.875 C-61.77606212 403.57204569 -62.12539495 400.19676063 -62.13142776 395.32347584 C-62.13718948 393.57684909 -62.13718948 393.57684909 -62.1430676 391.79493695 C-62.14176787 389.87460654 -62.14176787 389.87460654 -62.14044189 387.91548157 C-62.14302581 386.54233615 -62.14603905 385.16919149 -62.1494453 383.79604787 C-62.15751629 380.0183747 -62.15930493 376.24072053 -62.16004276 372.46303976 C-62.1618933 368.38980371 -62.16944095 364.31657752 -62.17617798 360.24334717 C-62.18976561 351.33157113 -62.19578755 342.41979959 -62.20018864 333.50801492 C-62.20295204 327.93916685 -62.20718974 322.37032051 -62.21169281 316.80147362 C-62.22388927 301.37316783 -62.23418574 285.94486343 -62.2375679 270.51655293 C-62.23778747 269.5288202 -62.23800703 268.54108747 -62.23823325 267.52342344 C-62.23856067 266.03831489 -62.23856067 266.03831489 -62.2388947 264.52320415 C-62.23933816 262.51701566 -62.23978473 260.51082716 -62.24023438 258.50463867 C-62.2404558 257.50950401 -62.24067723 256.51436934 -62.24090537 255.48907908 C-62.24484746 239.38944634 -62.26228175 223.28985903 -62.2855939 207.19024382 C-62.30935302 190.64778176 -62.32177194 174.10534244 -62.32293582 157.56286305 C-62.32385037 148.28047825 -62.32954637 138.99815253 -62.34775543 129.71578407 C-62.36321851 121.80536455 -62.36824073 113.89502235 -62.36001733 105.98459057 C-62.3561318 101.95414311 -62.3569365 97.92385105 -62.37107468 93.89342308 C-62.4850552 59.45516561 -62.4850552 59.45516561 -58 46 C-57.34 46 -56.68 46 -56 46 C-55.85304688 45.45472656 -55.70609375 44.90945312 -55.5546875 44.34765625 C-52.65303212 34.59209074 -46.8399552 27.37231021 -40 20 C-39.154375 19.071875 -38.30875 18.14375 -37.4375 17.1875 C-34.43615153 14.49398214 -31.1709696 12 -27 12 C-27 11.34 -27 10.68 -27 10 C-24.81477184 9.03619618 -22.62704614 8.07890561 -20.4375 7.125 C-19.82841797 6.85558594 -19.21933594 6.58617187 -18.59179688 6.30859375 C-12.47579214 3.65508905 -6.76039965 1.67022441 0 2 C0 1.34 0 0.68 0 0 Z M82 114 C82 137.1 82 160.2 82 184 C93.6015625 184.0928125 93.6015625 184.0928125 105.4375 184.1875 C107.86150146 184.21481201 110.28550293 184.24212402 112.78295898 184.27026367 C114.72899886 184.27903496 116.67504428 184.28667737 118.62109375 184.29296875 C119.6114563 184.30831665 120.60181885 184.32366455 121.62219238 184.33947754 C127.9589518 184.3418376 133.13234362 183.41613409 139 181 C139 180.34 139 179.68 139 179 C140.2684375 178.690625 140.2684375 178.690625 141.5625 178.375 C149.39640112 175.24143955 153.67547837 169.59705138 157 162 C160.47883566 152.70498596 159.68110536 142.97595661 156.17578125 133.85546875 C152.63982052 126.34976771 145.65218124 119.28716247 137.88142395 116.14271545 C131.31453792 114.0451258 125.3882614 113.60009291 118.5234375 113.70703125 C117.58991455 113.71005249 116.6563916 113.71307373 115.69458008 113.71618652 C112.25460529 113.73171467 108.81478985 113.77359666 105.375 113.8125 C97.66125 113.874375 89.9475 113.93625 82 114 Z " fill="#7800FF" transform="translate(1145,9)"/>
<path d="M0 0 C0 0.66 0 1.32 0 2 C0.96164062 2.09667969 1.92328125 2.19335938 2.9140625 2.29296875 C7.6423656 2.97166686 11.92856889 4.61845237 16.375 6.3125 C17.17421875 6.60833984 17.9734375 6.90417969 18.796875 7.20898438 C31.87136832 12.10663033 43.98331495 18.5613176 56 25.625 C56.62277832 25.98489014 57.24555664 26.34478027 57.88720703 26.71557617 C61.82454236 29.06334718 64.84696817 31.69303227 68 35 C69.35054474 36.13394794 70.72516031 37.23999925 72.125 38.3125 C73.28322266 39.20388672 73.28322266 39.20388672 74.46484375 40.11328125 C76.23042248 41.42726357 78.01608752 42.7145026 79.81640625 43.98046875 C85.39813932 47.90666739 89.7526148 51.66354167 94 57 C94.66 57.33 95.32 57.66 96 58 C96.41121094 58.70125 96.82242187 59.4025 97.24609375 60.125 C99.89020386 64.45922059 103.3198144 68.06045931 106.70507812 71.828125 C109.55592485 75.07012622 111.71545443 77.78732881 113 82 C113.66 82 114.32 82 115 82 C116.50400474 84.159518 117.85977757 86.29672791 119.1875 88.5625 C119.58461182 89.23345703 119.98172363 89.90441406 120.39086914 90.59570312 C125.6318373 99.60962231 130.32984301 108.88694163 133 119 C133.66 119 134.32 119 135 119 C136.17958694 122.22459272 137.34134131 125.45533436 138.5 128.6875 C138.83386719 129.59951172 139.16773438 130.51152344 139.51171875 131.45117188 C139.82753906 132.33740234 140.14335938 133.22363281 140.46875 134.13671875 C140.90864258 135.35427856 140.90864258 135.35427856 141.35742188 136.59643555 C142.04326336 139.16182665 142.11519796 141.35661819 142 144 C142.66 144 143.32 144 144 144 C147.0833437 157.29009232 149.8267366 170.39833015 151 184 C151.11085938 185.21300781 151.22171875 186.42601562 151.3359375 187.67578125 C153.65450988 216.84592833 151.40556673 246.66709515 144 275 C143.34 275 142.68 275 142 275 C141.89816406 276.134375 141.79632812 277.26875 141.69140625 278.4375 C141.08628102 283.22798707 139.64367903 287.49998199 137.9375 292 C137.62949463 292.82306641 137.32148926 293.64613281 137.00415039 294.49414062 C133.88792537 302.62056733 130.10325362 310.33333841 126 318 C125.15888672 319.57974609 125.15888672 319.57974609 124.30078125 321.19140625 C122.88819258 323.80665227 121.45082729 326.40583418 120 329 C119.61972656 329.69996094 119.23945312 330.39992188 118.84765625 331.12109375 C116.34741672 335.65926437 116.34741672 335.65926437 114.578125 337.39453125 C112.04139795 339.97521149 110.31727327 343.0816022 108.40234375 346.13671875 C107.93957031 346.75160156 107.47679687 347.36648438 107 348 C106.34 348 105.68 348 105 348 C105 348.66 105 349.32 105 350 C104.34 350 103.68 350 103 350 C102.62875 350.86625 102.62875 350.86625 102.25 351.75 C100.82711157 354.31119917 99.0666952 355.9333048 97 358 C96.54625 358.77859375 96.0925 359.5571875 95.625 360.359375 C89.13727069 370.90193513 73.80620522 384.06459826 62 388 C61.67 388.99 61.34 389.98 61 391 C58.91383016 392.36895596 56.87815003 393.5732355 54.6875 394.75 C53.41106692 395.45502098 52.13503232 396.16076384 50.859375 396.8671875 C50.21419922 397.22135742 49.56902344 397.57552734 48.90429688 397.94042969 C45.09427618 400.06036428 41.36546696 402.32156617 37.62109375 404.5546875 C34.00265357 406.54995258 31.1666543 408 27 408 C27 408.66 27 409.32 27 410 C26.20078125 410.24234375 25.4015625 410.4846875 24.578125 410.734375 C17.85613285 412.78568716 11.1866689 414.92736239 4.55859375 417.265625 C2 418 2 418 -2 418 C-2 418.66 -2 419.32 -2 420 C-23.11480965 425.01953361 -44.28939348 428.30456516 -66 429 C-67.82337891 429.061875 -67.82337891 429.061875 -69.68359375 429.125 C-96.01879313 429.56346326 -125.0027248 427.25601462 -149.76904297 417.81860352 C-152.11211333 416.95886233 -154.47039018 416.181767 -156.84765625 415.421875 C-167.6541788 411.96625902 -177.86372978 408.11242593 -188 403 C-189.12535156 402.43796875 -190.25070312 401.8759375 -191.41015625 401.296875 C-192.26480469 400.86890625 -193.11945313 400.4409375 -194 400 C-194 399.34 -194 398.68 -194 398 C-195.08087891 397.59394531 -195.08087891 397.59394531 -196.18359375 397.1796875 C-198.97104715 396.01212727 -201.4688595 394.67236512 -204.0625 393.125 C-205.31740234 392.38636719 -205.31740234 392.38636719 -206.59765625 391.6328125 C-209 390 -209 390 -210.98046875 388 C-213.91739493 385.09147736 -217.36460257 383.36887776 -220.953125 381.3671875 C-221.62859375 380.91601562 -222.3040625 380.46484375 -223 380 C-223 379.34 -223 378.68 -223 378 C-223.53625 377.79375 -224.0725 377.5875 -224.625 377.375 C-227.91978009 375.46749574 -230.59363628 372.95180616 -233 370 C-233 369.34 -233 368.68 -233 368 C-233.53625 367.79375 -234.0725 367.5875 -234.625 367.375 C-237.91978009 365.46749574 -240.59363628 362.95180616 -243 360 C-243 359.34 -243 358.68 -243 358 C-243.99 357.67 -244.98 357.34 -246 357 C-247.6484375 355.109375 -247.6484375 355.109375 -249.375 352.75 C-251.38744315 350.05968126 -253.2467747 347.7647032 -255.6875 345.4375 C-259.35651126 341.5701638 -261.32639198 337.02082406 -263 332 C-263.66 332 -264.32 332 -265 332 C-265.47050781 331.02417969 -265.94101562 330.04835938 -266.42578125 329.04296875 C-267.05436539 327.75765492 -267.68328952 326.47250733 -268.3125 325.1875 C-268.62123047 324.54490234 -268.92996094 323.90230469 -269.24804688 323.24023438 C-271.00664281 319.6017464 -271.00664281 319.6017464 -273.53125 316.48828125 C-275.8852655 314.10296235 -276.92176134 311.05027391 -278.1875 308 C-278.46013672 307.3709375 -278.73277344 306.741875 -279.01367188 306.09375 C-280.22496537 303.2279328 -281 301.14296477 -281 298 C-281.66 298 -282.32 298 -283 298 C-284.5 293.5 -284.5 293.5 -286 289 C-286.33257813 288.06542969 -286.66515625 287.13085938 -287.0078125 286.16796875 C-288.5073596 281.38004476 -289.30568589 276.48616257 -290.21875 271.55859375 C-290.89456676 268.48024839 -291.80499507 265.89595953 -293 263 C-294.20150437 258.06146367 -294.77722169 252.96474516 -295.5 247.9375 C-295.63019531 247.05900391 -295.76039063 246.18050781 -295.89453125 245.27539062 C-300.04718353 216.43752756 -301.4776603 179.64689169 -291.5625 151.75 C-290.20959812 147.92128769 -289.36044342 144.10604378 -288.5625 140.125 C-286.42032668 129.7915111 -282.50813768 120.50529369 -278 111 C-277.505 109.948125 -277.01 108.89625 -276.5 107.8125 C-274.90576333 104.82330625 -273.14029832 101.99593209 -271.3203125 99.140625 C-269.96544764 96.94398019 -268.7276063 94.70741353 -267.5 92.4375 C-265.59869661 88.95775606 -263.48057467 85.79918892 -261.1171875 82.62109375 C-259.81415791 80.8201129 -259.81415791 80.8201129 -258.5 77.875 C-256.76587747 74.55126515 -254.6635316 72.64099113 -252 70 C-250.02099293 67.76405954 -248.10775001 65.47394011 -246.1875 63.1875 C-240.26342205 56.20974669 -234.25751421 49.62457351 -227 44 C-225.72689511 42.85669106 -224.45630261 41.71058158 -223.1875 40.5625 C-219.90889069 37.66266942 -216.55036016 35.32312837 -212.76171875 33.140625 C-210.96859254 32.07084914 -210.96859254 32.07084914 -209.6171875 30.58984375 C-207.4396778 28.44915185 -205.01250709 26.94802381 -202.4375 25.3125 C-201.46683594 24.68988281 -200.49617187 24.06726562 -199.49609375 23.42578125 C-197 22 -197 22 -195 22 C-195 21.34 -195 20.68 -195 20 C-192.46195542 18.84552129 -189.92006371 17.70131573 -187.375 16.5625 C-186.66214844 16.23701172 -185.94929687 15.91152344 -185.21484375 15.57617188 C-181.13828214 13.76228896 -177.48213493 12.50194256 -173 12 C-173 11.34 -173 10.68 -173 10 C-165.47359931 6.99436699 -157.94842272 4.2669386 -150.16796875 1.9921875 C-146.89647058 1.0150904 -146.89647058 1.0150904 -143.41015625 -0.45703125 C-99.58547591 -17.09364823 -44.20737879 -10.30905269 0 0 Z M-96 30 C-96 30.66 -96 31.32 -96 32 C-96.74121094 32.24878906 -97.48242188 32.49757813 -98.24609375 32.75390625 C-104.8856068 35.75816818 -108.97714806 42.11516875 -111.5 48.75 C-112.7051765 52.30319278 -113.16189693 55.24938785 -113 59 C-113.66 59 -114.32 59 -115 59 C-115 66.92 -115 74.84 -115 83 C-118.3 83.99 -121.6 84.98 -125 86 C-134.45462374 90.202055 -142.91250897 95.99684349 -150.95703125 102.4609375 C-153 104 -153 104 -156.4375 105.8125 C-161.775636 108.68881328 -166.14366764 113.39013143 -170 118 C-170.26683594 119.0828125 -170.26683594 119.0828125 -170.5390625 120.1875 C-170.69117188 120.785625 -170.84328125 121.38375 -171 122 C-172.32271977 122.68748429 -173.65740339 123.35219095 -175 124 C-176.5853655 126.02581856 -176.5853655 126.02581856 -177.9375 128.375 C-179.73687317 131.23496087 -180.87838183 132.91023421 -183.625 134.9375 C-187.40617967 138.22115603 -188.9315209 142.15715316 -190 147 C-189.95526466 152.08491691 -188.78793703 156.43191065 -185.6875 160.5 C-181.09923139 164.76815684 -177.432898 165.22249074 -171.37890625 165.36328125 C-166.49766604 164.61787018 -163.24313713 162.62587741 -160.2890625 158.7421875 C-159.38999922 157.46080217 -158.5023596 156.17134226 -157.625 154.875 C-156.66604894 153.51590289 -155.70380503 152.15912315 -154.73828125 150.8046875 C-154.27244629 150.14952148 -153.80661133 149.49435547 -153.32666016 148.81933594 C-144.71442366 137.00881213 -133.06775715 127.53387857 -120 121 C-120 120.34 -120 119.68 -120 119 C-119.030625 118.7525 -118.06125 118.505 -117.0625 118.25 C-111.71867428 116.72625853 -106.76825755 114.27215967 -101.73046875 111.95703125 C-79.86251132 102.49179595 -49.10113031 102.28932777 -26.8125 110.8125 C-25.2019188 111.52738665 -23.59841728 112.2583148 -22 113 C-20.14292276 113.81010765 -18.28567816 114.6198725 -16.42456055 115.4206543 C-14.58153369 116.21486491 -12.74375482 117.02122071 -10.90625 117.828125 C-8.213123 119.12465611 -8.213123 119.12465611 -6 119 C-6 119.66 -6 120.32 -6 121 C-3.40603047 122.72045124 -0.76065372 124.27024486 1.93945312 125.81445312 C5.87434597 128.13092677 8.85018369 130.71557616 12 134 C13.09965631 134.80657611 14.2220329 135.58416224 15.375 136.3125 C25.22916979 143.19342891 33.54553551 155.04442517 38 166 C39.12374441 168.27145494 40.24879893 170.54226209 41.375 172.8125 C44.12347842 178.54689849 46.18098632 184.30990508 47.875 190.4375 C48.07786621 191.17009033 48.28073242 191.90268066 48.48974609 192.6574707 C52.90984622 209.48785195 52.50770984 228.63493351 49.25 245.625 C49.09313721 246.44572998 48.93627441 247.26645996 48.7746582 248.11206055 C47.55556522 253.77484975 45.51557642 258.79653077 43 264 C42.44957031 265.15886719 41.89914062 266.31773437 41.33203125 267.51171875 C40.31451208 269.63830767 39.29364711 271.76329877 38.26953125 273.88671875 C37.01540955 276.96221104 36.40884441 279.71446725 36 283 C35.34 283 34.68 283 34 283 C30.58513371 286.75107876 30.58513371 286.75107876 28 291.0625 C26.52357069 293.92308178 24.31988676 295.78801495 22 298 C20.824375 299.2065625 20.824375 299.2065625 19.625 300.4375 C17.06725343 302.93434784 14.41575498 305.23163048 11.6796875 307.52734375 C9.81522778 309.11082407 9.81522778 309.11082407 7.625 311.5625 C4.09437591 314.84093666 0.27539256 316.82231804 -4 319 C-5.63775391 319.83917969 -5.63775391 319.83917969 -7.30859375 320.6953125 C-10.85942918 322.49212079 -14.42627181 324.24927473 -18 326 C-18.94101562 326.47953125 -19.88203125 326.9590625 -20.8515625 327.453125 C-42.78481139 338.19329997 -73.09294955 337.89928446 -96.203125 331.05078125 C-99.74336814 329.79982941 -103.16888009 328.36509465 -106.60546875 326.85546875 C-113.27513668 323.99992257 -118.15062948 322.59349923 -125.25 325.1875 C-128.22806962 327.15031861 -130.02666279 329.03999419 -132 332 C-132 332.66 -132 333.32 -132 334 C-132.66 334.33 -133.32 334.66 -134 335 C-133.505 336.485 -133.505 336.485 -133 338 C-133.66 338 -134.32 338 -135 338 C-135 339.32 -135 340.64 -135 342 C-134.34 342 -133.68 342 -133 342 C-133.12375 342.680625 -133.2475 343.36125 -133.375 344.0625 C-132.78615787 348.67509672 -130.61771246 351.1593774 -127 354 C-123.88817094 355.48240676 -120.77580152 356.65763171 -117.51171875 357.76171875 C-114.8028454 358.71690546 -112.34762453 359.75383266 -109.76171875 360.97265625 C-79.56382481 374.5295359 -40.48253447 369.76212813 -10 360 C-10 359.34 -10 358.68 -10 358 C-9.443125 357.90203125 -8.88625 357.8040625 -8.3125 357.703125 C-1.3945933 356.34758923 4.14826817 353.90115456 10 350 C10 349.34 10 348.68 10 348 C11.175625 347.938125 11.175625 347.938125 12.375 347.875 C17.48083557 346.64255693 21.81547373 344.16794644 26 341 C26.33 340.01 26.66 339.02 27 338 C28.11375 337.566875 28.11375 337.566875 29.25 337.125 C32.71426259 335.70780167 34.46036847 333.73010389 37 331 C37.763125 330.2575 38.52625 329.515 39.3125 328.75 C42.32262179 325.66987538 45.1306612 322.44880744 47.9375 319.18359375 C50 317 50 317 52.51171875 315.05078125 C60.83729182 308.1890452 65.52234538 296.50456826 70.08154297 286.91796875 C70.92109719 285.16476887 71.78920009 283.4253137 72.66015625 281.6875 C78.63284071 269.46717374 82.7101801 256.67422994 83 243 C83.66 243 84.32 243 85 243 C85.98254298 235.63872559 86.15053228 228.4213831 86.125 221 C86.12886719 219.8759375 86.13273437 218.751875 86.13671875 217.59375 C86.1293792 211.31109126 85.83129747 205.22813345 85 199 C84.34 199 83.68 199 83 199 C82.99742187 198.44957031 82.99484375 197.89914063 82.9921875 197.33203125 C82.66431077 190.28268157 81.00215267 183.809646 79.0625 177.0625 C78.66490479 175.67671753 78.66490479 175.67671753 78.25927734 174.26293945 C77.09378376 170.31393464 75.93417977 166.64836544 74 163 C73.34 163 72.68 163 72 163 C71.89816406 162.14148438 71.79632812 161.28296875 71.69140625 160.3984375 C70.94202588 156.71504245 69.67376769 153.94976792 67.9375 150.625 C67.38964844 149.56539063 66.84179688 148.50578125 66.27734375 147.4140625 C65.85582031 146.61742187 65.43429687 145.82078125 65 145 C64.34 145 63.68 145 63 145 C62.896875 144.278125 62.79375 143.55625 62.6875 142.8125 C61.93206053 139.72206579 60.84468685 137.58256159 59 135 C58.34 135 57.68 135 57 135 C56.72905518 134.41283203 56.45811035 133.82566406 56.17895508 133.22070312 C54.22748536 129.54487612 51.4162701 126.61945972 48.6875 123.5 C47.83381836 122.50419922 47.83381836 122.50419922 46.96289062 121.48828125 C44.51474276 118.67192745 42.20678651 116.16329922 39.26953125 113.84375 C37 112 37 112 35.51171875 109.43359375 C33.64767718 106.43282399 31.96524233 105.59662709 28.8125 104.0625 C24.42777869 101.81807801 20.654824 99.35161796 16.78515625 96.32421875 C13.8465888 94.14440613 10.73209211 92 7 92 C6.67 91.01 6.34 90.02 6 89 C3.51819988 87.79572627 1.13520225 86.77459087 -1.4375 85.8125 C-2.13166016 85.53986328 -2.82582031 85.26722656 -3.54101562 84.98632812 C-7.16469761 83.50752613 -7.16469761 83.50752613 -11 83 C-10.98428955 82.39639648 -10.9685791 81.79279297 -10.95239258 81.17089844 C-10.09163238 62.45366877 -10.09163238 62.45366877 -16 45 C-16.99 44.34 -17.98 43.68 -19 43 C-19.495 41.96875 -19.99 40.9375 -20.5 39.875 C-24.13333484 33.24624408 -31.22488523 28.83175193 -38.1875 26.29296875 C-45.41913714 24.2841056 -52.88220908 24.5158579 -60.33056641 24.55395508 C-62.86313394 24.56246015 -65.39343558 24.53363815 -67.92578125 24.50195312 C-78.078904 24.45951258 -86.74944833 25.37472416 -96 30 Z M-13 160 C-14.0415625 160.68835938 -15.083125 161.37671875 -16.15625 162.0859375 C-17.27199 162.84726597 -18.38655739 163.61031552 -19.5 164.375 C-20.05558594 164.74882812 -20.61117187 165.12265625 -21.18359375 165.5078125 C-24.85365948 168.02936355 -27.89548877 170.82231847 -31 174 C-32.18124106 174.91124311 -33.38630072 175.79354432 -34.625 176.625 C-36.42645833 177.83955788 -37.98467179 178.98467179 -39.5234375 180.5234375 C-41 182 -41 182 -44 184 C-46.12109375 183.79296875 -46.12109375 183.79296875 -48.4375 183.1875 C-49.19933594 182.99542969 -49.96117187 182.80335938 -50.74609375 182.60546875 C-52.14767479 182.22896085 -53.54671807 181.8426948 -54.94140625 181.44140625 C-64.01640221 179.49553425 -74.92998221 180.76488063 -83.1328125 185.13671875 C-86.82401292 187.66942553 -89.9201696 190.75807326 -93 194 C-93.845625 194.70125 -94.69125 195.4025 -95.5625 196.125 C-101.70013279 203.36425919 -103.38128907 213.62841259 -103.28125 222.89453125 C-102.25630331 234.2116509 -97.54536018 244.49675692 -89 252 C-81.10655161 258.38993441 -69.26641781 260.75240922 -59.24609375 259.71484375 C-46.37909915 257.58525772 -37.9875761 253.88364678 -29.734375 243.53515625 C-27.3283365 240.01822159 -26 237.28408276 -26 233 C-25.34 233 -24.68 233 -24 233 C-23.14304033 227.11599345 -22.87460766 221.44090708 -22.9375 215.5 C-22.94201172 214.67757812 -22.94652344 213.85515625 -22.95117188 213.0078125 C-22.96281511 211.00517604 -22.98074444 209.00257773 -23 207 C-22.401875 206.70867187 -21.80375 206.41734375 -21.1875 206.1171875 C-17.39859994 204.18214211 -13.96868839 201.9989599 -11 198.9375 C-8.5730815 196.58642271 -6.03570795 195.45461006 -3 194 C-0.67780342 192.55269907 -0.67780342 192.55269907 1 191 C1 190.34 1 189.68 1 189 C1.556875 188.79375 2.11375 188.5875 2.6875 188.375 C6.84321674 185.90403329 9.29429091 182.44349586 11.375 178.1875 C12.53140497 172.28983465 12.11195617 167.15315918 8.75 162.0625 C6.4283377 159.21318718 4.69043201 157.75486109 1 157 C-4.76644974 156.4317732 -8.0948684 156.72261296 -13 160 Z M-229.625 185.6875 C-232.48484075 189.43706899 -235.322408 193.30220362 -234.734375 198.22265625 C-234.25238433 200.17471847 -233.63583504 202.09249489 -233 204 C-232.34 204 -231.68 204 -231 204 C-230.731875 204.5775 -230.46375 205.155 -230.1875 205.75 C-228.09911368 210.00382355 -228.09911368 210.00382355 -224.37609863 212.60420227 C-221.03852138 213.16015794 -217.73071612 213.14739269 -214.35742188 213.14526367 C-213.21038536 213.15030159 -213.21038536 213.15030159 -212.04017639 213.15544128 C-209.51635101 213.16492834 -206.9925921 213.16689309 -204.46875 213.16796875 C-202.71284966 213.17118225 -200.95694958 213.17454639 -199.2010498 213.17805481 C-195.522536 213.18403999 -191.84404567 213.18589527 -188.16552734 213.18530273 C-183.45103617 213.185201 -178.73669522 213.19886761 -174.02223969 213.21607494 C-170.39686388 213.2271888 -166.77152452 213.22922215 -163.14613342 213.22869301 C-161.40779603 213.2298735 -159.66945771 213.23429913 -157.93113708 213.24202538 C-155.50150992 213.25181542 -153.0722105 213.24895149 -150.64257812 213.24291992 C-149.92453506 213.24853943 -149.206492 213.25415894 -148.46669006 213.25994873 C-144.81077184 213.23686945 -142.10851733 213.01093354 -139 211 C-139 210.34 -139 209.68 -139 209 C-138.401875 208.7525 -137.80375 208.505 -137.1875 208.25 C-134.62054091 206.78316624 -133.58377482 205.48691914 -132 203 C-130.7939669 198.37432874 -130.60076643 194.24466937 -132.0625 189.6875 C-135.00948922 185.59974076 -138.12147624 182.62617459 -143 181 C-145.51355678 180.8989573 -147.99944762 180.85315427 -150.51318359 180.85473633 C-151.65759163 180.84969841 -151.65759163 180.84969841 -152.82511902 180.84455872 C-155.34957504 180.83505273 -157.87396469 180.83310574 -160.3984375 180.83203125 C-162.15337145 180.82881829 -163.90830514 180.82545418 -165.66323853 180.82194519 C-169.34353252 180.81595471 -173.02380303 180.81410519 -176.70410156 180.81469727 C-181.41740212 180.81479885 -186.13055192 180.80114993 -190.84381676 180.78392506 C-194.46923513 180.77279998 -198.09461712 180.77077822 -201.72005081 180.77130699 C-203.45756169 180.77012752 -205.19507353 180.76570756 -206.9325676 180.75797462 C-209.36449452 180.74816506 -211.79609504 180.75105661 -214.22802734 180.75708008 C-214.94404617 180.75146057 -215.660065 180.74584106 -216.39778137 180.74005127 C-222.17315087 180.77635626 -225.56094703 181.52668387 -229.625 185.6875 Z M-250 229 C-250 229.66 -250 230.32 -250 231 C-250.763125 231.20625 -251.52625 231.4125 -252.3125 231.625 C-256.0557252 233.54013848 -256.67036565 235.01109694 -258 239 C-258.66108547 245.09466465 -258.9003988 250.96722736 -255 256 C-249.14841721 259.21639085 -244.10197072 259.43998684 -237.51000977 259.41992188 C-235.96230392 259.43262619 -235.96230392 259.43262619 -234.3833313 259.44558716 C-230.98589622 259.4689112 -227.5889152 259.46998043 -224.19140625 259.46875 C-221.82160767 259.47585389 -219.4518108 259.48355322 -217.08201599 259.49182129 C-212.11997696 259.50525526 -207.15809703 259.50683946 -202.19604492 259.50097656 C-195.84624885 259.49507905 -189.49721697 259.52568037 -183.1475687 259.56609344 C-178.25497851 259.59197632 -173.36257224 259.59484732 -168.46992302 259.59120178 C-166.12921159 259.59289219 -163.78849158 259.60252701 -161.44784737 259.62034607 C-158.17117644 259.64254829 -154.89605163 259.63282632 -151.61938477 259.61523438 C-150.17823051 259.63512924 -150.17823051 259.63512924 -148.70796204 259.65542603 C-142.37680028 259.57668094 -137.81090831 258.27312314 -133 254 C-130.40768105 249.03138867 -130.27435834 243.77063179 -131.6875 238.375 C-133.36408823 235.34117368 -135.39990643 233.27508187 -138 231 C-138.66 231 -139.32 231 -140 231 C-140 230.34 -140 229.68 -140 229 C-142.31450774 227.84274613 -143.63097128 227.87427982 -146.20652771 227.87301636 C-147.08842773 227.87019653 -147.97032776 227.86737671 -148.87895203 227.86447144 C-149.84887589 227.86649567 -150.81879974 227.8685199 -151.81811523 227.87060547 C-153.34751236 227.86797699 -153.34751236 227.86797699 -154.9078064 227.86529541 C-158.2914193 227.86088009 -161.67498028 227.863814 -165.05859375 227.8671875 C-167.40267446 227.86651432 -169.7467551 227.86554417 -172.09083557 227.86428833 C-177.0095384 227.86281175 -181.9282231 227.86496446 -186.84692383 227.86962891 C-193.16007399 227.87532302 -199.47318162 227.87204893 -205.78633022 227.86605644 C-210.62893496 227.8624471 -215.47152956 227.8635912 -220.3141346 227.86618423 C-222.6422126 227.86685263 -224.97029151 227.86602812 -227.29836845 227.86370468 C-230.54976723 227.86117242 -233.80109664 227.86502709 -237.05249023 227.87060547 C-238.02038986 227.86858124 -238.98828949 227.86655701 -239.98551941 227.86447144 C-240.87023926 227.86729126 -241.75495911 227.87011108 -242.66648865 227.87301636 C-243.81990328 227.8735819 -243.81990328 227.8735819 -244.99661922 227.87415886 C-247.20862296 227.92724543 -247.20862296 227.92724543 -250 229 Z M-229.9609375 280.796875 C-233.10225864 285.13571635 -235.19830486 288.44746394 -235 294 C-233.23417742 299.35906621 -230.31554235 303.34838724 -226 307 C-222.39476738 308.20174421 -219.08886102 308.16328049 -215.33496094 308.17700195 C-214.16611107 308.18685875 -214.16611107 308.18685875 -212.97364807 308.19691467 C-210.39388938 308.2166306 -207.81418888 308.22830701 -205.234375 308.23828125 C-204.35222572 308.24235678 -203.47007645 308.2464323 -202.56119537 308.25063133 C-197.89122248 308.2714857 -193.22127891 308.28578965 -188.55126953 308.29516602 C-183.7348872 308.3062237 -178.91896773 308.3406179 -174.10274887 308.38033772 C-170.39317992 308.40652105 -166.68372092 308.41485941 -162.97406769 308.41844749 C-161.19910815 308.42330972 -159.4241534 308.43491336 -157.64928436 308.45348549 C-155.16002555 308.477912 -152.67195991 308.47690578 -150.18261719 308.4699707 C-149.45508743 308.48278076 -148.72755768 308.49559082 -147.97798157 308.50878906 C-142.47812414 308.45318607 -139.44139942 307.00339742 -135 304 C-132.08360102 300.52078718 -130.76756626 296.38047064 -130.5 291.875 C-131.06515833 287.49502293 -132.14943479 285.33923354 -135 282 C-135.99 281.67 -136.98 281.34 -138 281 C-138.495 279.515 -138.495 279.515 -139 278 C-143.03398858 275.74346244 -147.0163144 275.7091781 -151.52490234 275.7253418 C-152.26541336 275.72023087 -153.00592438 275.71511993 -153.76887512 275.70985413 C-156.20797898 275.69599567 -158.64679903 275.69691221 -161.0859375 275.69921875 C-162.788382 275.69532943 -164.49082554 275.69099428 -166.19326782 275.68623352 C-169.75908556 275.67877913 -173.32480428 275.67905668 -176.890625 275.68432617 C-181.44906845 275.69011628 -186.00710498 275.67319723 -190.56548119 275.6499815 C-194.0811905 275.63521313 -197.59680255 275.63437673 -201.11253738 275.63749123 C-202.7925764 275.63697946 -204.47262106 275.63176895 -206.15262985 275.62167931 C-208.50745429 275.60927326 -210.86149567 275.61613117 -213.21630859 275.62768555 C-213.9032933 275.62004181 -214.59027802 275.61239807 -215.29808044 275.60452271 C-220.93651543 275.66534164 -225.72978206 276.91972061 -229.9609375 280.796875 Z " fill="#7800FF" transform="translate(896,9)"/>
<path d="M0 0 C0 0.66 0 1.32 0 2 C0.86109375 2.10054687 1.7221875 2.20109375 2.609375 2.3046875 C15.07181337 4.86034882 30.65199171 15.72076649 38.25 26.0625 C39.34907646 27.90737834 40.43456602 29.76049053 41.5 31.625 C42.9115655 34.066638 42.9115655 34.066638 45 35.9375 C47.39278256 38.40505701 48.54397984 40.89804401 50 44 C50.556875 44.886875 51.11375 45.77375 51.6875 46.6875 C53 49 53 49 53 52 C53.66 52 54.32 52 55 52 C55.34780518 52.99181274 55.34780518 52.99181274 55.70263672 54.00366211 C56.75259356 56.98431171 57.81363214 59.96089567 58.875 62.9375 C59.23980469 63.97841797 59.60460938 65.01933594 59.98046875 66.09179688 C60.33496094 67.08115234 60.68945312 68.07050781 61.0546875 69.08984375 C61.37937012 70.00628662 61.70405273 70.92272949 62.03857422 71.86694336 C62.80435497 74.16536849 62.80435497 74.16536849 65 75 C65.7814254 77.49571524 66.46984718 79.97100495 67.125 82.5 C69.52297625 91.22759376 73.120466 99.04855724 77.10595703 107.14501953 C82 117.29929001 82 117.29929001 82 122 C82.66 122 83.32 122 84 122 C84.17015625 122.556875 84.3403125 123.11375 84.515625 123.6875 C85.79006366 127.700626 87.15060852 131.46209709 89.125 135.1875 C90.82797573 138.43095377 91.63211832 141.32118324 92 145 C92.66 145 93.32 145 94 145 C94.32613281 146.15757812 94.65226562 147.31515625 94.98828125 148.5078125 C95.42937936 150.04696334 95.87080289 151.58602095 96.3125 153.125 C96.52583984 153.88554687 96.73917969 154.64609375 96.95898438 155.4296875 C98.25188836 159.90660875 99.88995207 163.82940673 102 168 C102 168.99 102 169.98 102 171 C102.66 171 103.32 171 104 171 C104.26216309 171.72179443 104.52432617 172.44358887 104.79443359 173.18725586 C105.9805716 176.4400859 107.17762389 179.68879089 108.375 182.9375 C108.7875 184.07380859 109.2 185.21011719 109.625 186.38085938 C110.02460937 187.46044922 110.42421875 188.54003906 110.8359375 189.65234375 C111.20251465 190.65257568 111.5690918 191.65280762 111.94677734 192.68334961 C112.77487901 195.14958229 112.77487901 195.14958229 115 196 C115.82202148 197.76245117 115.82202148 197.76245117 116.62109375 200.04296875 C116.91693359 200.86990234 117.21277344 201.69683594 117.51757812 202.54882812 C117.97293945 203.8549707 117.97293945 203.8549707 118.4375 205.1875 C120.36016652 210.64952683 122.36802792 215.83163024 125 221 C125.68388018 222.90342316 126.33006871 224.82081908 126.9375 226.75 C129.47775873 234.56395177 132.55457257 242.06800226 135.91796875 249.55859375 C137.22440796 252.50633564 138.49357512 255.4680902 139.75 258.4375 C140.39195312 259.95150391 140.39195312 259.95150391 141.046875 261.49609375 C142 264 142 264 142 266 C142.66 266 143.32 266 144 266 C144.38671875 267.14597656 144.7734375 268.29195313 145.171875 269.47265625 C145.69754515 271.00273186 146.22360779 272.53267265 146.75 274.0625 C147.00265625 274.81466797 147.2553125 275.56683594 147.515625 276.34179688 C148.77607174 279.98133683 150.09781513 283.34296199 152.07421875 286.65625 C153.95524916 289.92229874 155.0408061 292.82397656 156.0625 296.4375 C157.16728972 300.23221253 158.30198952 303.94718935 159.75 307.625 C161 311 161 311 161 314 C161.66 314.33 162.32 314.66 163 315 C165.57521367 319.61762451 167.52479526 324.30025614 169.375 329.25 C171.05790296 333.73774124 172.92966098 337.98973814 175.125 342.25 C181 353.6820232 181 353.6820232 181 360 C181.66 360 182.32 360 183 360 C183.32613281 361.07378906 183.65226562 362.14757812 183.98828125 363.25390625 C184.42948531 364.69016629 184.87090299 366.12636073 185.3125 367.5625 C185.52583984 368.26697266 185.73917969 368.97144531 185.95898438 369.69726562 C187.37421072 374.28090916 189.0683256 378.60983092 191 383 C193.3727906 391.4126212 191.71602383 399.05381366 188.9375 407.0625 C185.82958072 411.77450665 181.34729294 415.96349763 175.85546875 417.6640625 C173.9375 417.9375 173.9375 417.9375 171 418 C171 418.66 171 419.32 171 420 C138.99 420 106.98 420 74 420 C74 419.34 74 418.68 74 418 C72.906875 417.87625 71.81375 417.7525 70.6875 417.625 C67 417 67 417 64 415 C64 414.34 64 413.68 64 413 C63.401875 412.731875 62.80375 412.46375 62.1875 412.1875 C57.74209081 409.77427787 55.98131366 406.62306521 54 402 C54 400.68 54 399.36 54 398 C53.34 398 52.68 398 52 398 C51.80365967 397.42032471 51.60731934 396.84064941 51.4050293 396.2434082 C50.50514543 393.59770204 49.5964139 390.95511687 48.6875 388.3125 C48.2244043 386.94448242 48.2244043 386.94448242 47.75195312 385.54882812 C46.18402652 381.0100932 44.4991018 377.10857768 42 373 C40.9726818 370.33040199 40.13782724 367.61279246 39.3125 364.875 C39.08755859 364.15957031 38.86261719 363.44414062 38.63085938 362.70703125 C37.7077817 359.70492454 37 357.15848898 37 354 C-7.22 354 -51.44 354 -97 354 C-97.99 357.63 -98.98 361.26 -100 365 C-100.61235346 366.90691058 -101.24949535 368.80656025 -101.9375 370.6875 C-102.23527344 371.51636719 -102.53304688 372.34523438 -102.83984375 373.19921875 C-103.78892691 375.49043971 -104.82820281 377.5907935 -105.984375 379.77734375 C-108.14066667 384.01953184 -109.21961217 388.26640116 -110.3125 392.875 C-112.89813408 402.76451949 -116.31252512 409.9606778 -125.1875 415.625 C-128.63853537 417.59236189 -129.88688515 418 -134 418 C-134 418.66 -134 419.32 -134 420 C-146.30944999 420.13945608 -158.61870985 420.24585214 -170.92879105 420.31087303 C-176.64584652 420.34209119 -182.36235869 420.38438995 -188.07910156 420.45263672 C-193.60345496 420.51816869 -199.12728812 420.55377749 -204.65200043 420.56926346 C-206.75222708 420.58028924 -208.85242754 420.60181947 -210.95243073 420.63438034 C-225.75232478 420.85458085 -235.3000363 419.81368786 -247 410 C-252.46623497 402.81350873 -252.62253256 394.68210582 -252 386 C-251.30253475 382.85627794 -250.20355129 379.98118144 -249 377 C-248.26644617 374.98075505 -247.53735902 372.95988245 -246.8125 370.9375 C-246.20954267 369.29122324 -245.60581295 367.64522807 -245 366 C-244.34 366 -243.68 366 -243 366 C-242.76216797 365.12601562 -242.76216797 365.12601562 -242.51953125 364.234375 C-240.08453308 355.67824882 -236.6853242 347.6188465 -232.9375 339.5625 C-230.81085878 334.85289373 -229.3774866 329.96925167 -227.9296875 325.015625 C-227.08362021 322.27123867 -226.10809838 319.64766868 -225 317 C-224.34 317 -223.68 317 -223 317 C-222.84144531 316.42894531 -222.68289063 315.85789062 -222.51953125 315.26953125 C-219.47081843 304.67483311 -215.47858299 294.73756393 -210.42578125 284.9453125 C-208.24001753 280.43006362 -206.59035393 275.75235176 -205 271 C-204.34 271 -203.68 271 -203 271 C-202.896875 270.20078125 -202.79375 269.4015625 -202.6875 268.578125 C-201.83634532 264.14825179 -200.45734876 260.0120577 -199 255.75 C-198.72671875 254.9353125 -198.4534375 254.120625 -198.171875 253.28125 C-196.15529337 247.31058673 -196.15529337 247.31058673 -195 245 C-194.34 245 -193.68 245 -193 245 C-192.773125 243.7625 -192.54625 242.525 -192.3125 241.25 C-190.83591871 234.51978527 -188.07543979 228.15087957 -185 222 C-184.34 222 -183.68 222 -183 222 C-182.90847656 221.21367187 -182.81695313 220.42734375 -182.72265625 219.6171875 C-181.78238996 214.91077353 -180.14013202 210.60241648 -178.4375 206.125 C-178.10814453 205.24585938 -177.77878906 204.36671875 -177.43945312 203.4609375 C-176.63113386 201.30541947 -175.81787706 199.15190559 -175 197 C-174.34 197 -173.68 197 -173 197 C-172.84144531 196.28457031 -172.68289063 195.56914062 -172.51953125 194.83203125 C-170.66768897 186.92333464 -168.06686125 179.51562836 -165 172 C-164.34 172 -163.68 172 -163 172 C-162.87882812 171.12085938 -162.75765625 170.24171875 -162.6328125 169.3359375 C-162.02828117 166.14908716 -161.15889215 163.59240635 -159.875 160.625 C-159.43027344 159.58859375 -158.98554687 158.5521875 -158.52734375 157.484375 C-158.02332031 156.33453125 -157.51929688 155.1846875 -157 154 C-156.71785645 153.35611328 -156.43571289 152.71222656 -156.14501953 152.04882812 C-154.94237543 149.30482263 -153.73942929 146.56095859 -152.5324707 143.81884766 C-150.23796143 138.59109247 -148.06077181 133.32472717 -146 128 C-145.34 128 -144.68 128 -144 128 C-143.82210938 127.00033203 -143.82210938 127.00033203 -143.640625 125.98046875 C-141.69183972 116.91386405 -138.81174766 108.08247411 -134.40234375 99.92578125 C-131.02438586 92.87817551 -128.6140903 85.35843191 -126 78 C-125.34 78 -124.68 78 -124 78 C-123.86859619 77.4337793 -123.73719238 76.86755859 -123.60180664 76.28417969 C-122.98472298 73.94201551 -122.21468948 71.72316443 -121.37109375 69.453125 C-120.90219727 68.18662109 -120.90219727 68.18662109 -120.42382812 66.89453125 C-120.09833984 66.02183594 -119.77285156 65.14914063 -119.4375 64.25 C-119.10814453 63.36183594 -118.77878906 62.47367187 -118.43945312 61.55859375 C-117.62818221 59.37168954 -116.81496955 57.18552799 -116 55 C-115.34 55 -114.68 55 -114 55 C-113.82984375 54.28714844 -113.6596875 53.57429688 -113.484375 52.83984375 C-111.24955747 44.00755959 -108.60598455 38.44083494 -102 32 C-101.01 30.4840625 -101.01 30.4840625 -100 28.9375 C-97.93576421 25.90565369 -95.87742706 24.23000597 -93 22 C-92.401875 21.195625 -91.80375 20.39125 -91.1875 19.5625 C-88.70673075 16.65645602 -86.19028691 15.09156526 -82.90234375 13.2109375 C-80.97675191 12.09444271 -80.97675191 12.09444271 -79.62792969 10.54541016 C-77.84566635 8.85348951 -76.29605273 8.0434413 -74.05078125 7.0625 C-73.28443359 6.72476562 -72.51808594 6.38703125 -71.72851562 6.0390625 C-70.93123047 5.69617187 -70.13394531 5.35328125 -69.3125 5 C-68.53455078 4.65710937 -67.75660156 4.31421875 -66.95507812 3.9609375 C-45.81009388 -5.28007313 -22.22851732 -7.40950577 0 0 Z M-30 176 C-30.31453125 176.9178125 -30.6290625 177.835625 -30.953125 178.78125 C-34.87504206 190.02722903 -34.87504206 190.02722903 -37 193.9375 C-39.02391236 197.73648304 -40.38520108 201.74171736 -41.75 205.8125 C-42.08451172 206.80141235 -42.08451172 206.80141235 -42.42578125 207.81030273 C-43.36081466 210.66575658 -44 212.97457749 -44 216 C-44.66 216 -45.32 216 -46 216 C-51.88693614 230.04702522 -51.88693614 230.04702522 -54 245 C-54.66 245 -55.32 245 -56 245 C-57.32 248.96 -58.64 252.92 -60 257 C-40.2 257 -20.4 257 0 257 C-2.21232637 248.47209484 -2.21232637 248.47209484 -5.25 240.5625 C-9.0025042 231.89846125 -11.94424566 222.92751809 -15 214 C-15.66 214 -16.32 214 -17 214 C-17.2475 212.741875 -17.495 211.48375 -17.75 210.1875 C-18.78291636 205.49510854 -20.36233148 201.12461559 -22.05859375 196.63671875 C-22.87718278 194.34399013 -23.51723819 192.11891056 -24.0625 189.75 C-25.33348233 184.66607067 -27.07478636 180.38782046 -30 176 Z " fill="#7800FF" transform="translate(1718,9)"/>
<path d="M0 0 C0.79664062 0.19722656 1.59328125 0.39445313 2.4140625 0.59765625 C3.19910156 0.79681641 3.19910156 0.79681641 4 1 C4 1.66 4 2.32 4 3 C4.763125 3.20625 5.52625 3.4125 6.3125 3.625 C11.49898594 5.55894391 16.19033084 8.2785146 21 11 C21 11.66 21 12.32 21 13 C21.680625 13.20625 22.36125 13.4125 23.0625 13.625 C32.7459743 18.1576901 39.43207497 27.16838437 43 37 C44.07821204 40.31330396 45.07435253 43.64102168 46 47 C46.66 47 47.32 47 48 47 C48.21615967 47.60884033 48.43231934 48.21768066 48.6550293 48.8449707 C53.78587282 63.39139884 53.78587282 63.39139884 59.90234375 77.5390625 C62.32336457 82.96697395 65 89.00569957 65 95 C65.66 95 66.32 95 67 95 C67.15855469 95.64324219 67.31710938 96.28648438 67.48046875 96.94921875 C69.19133646 103.57528652 71.40545761 109.82504902 74.01171875 116.15234375 C75 119 75 119 75 123 C75.66 123.33 76.32 123.66 77 124 C80.70161737 131.30550227 83.07881996 139.06537025 85 147 C85.66 147 86.32 147 87 147 C88.15404744 150.20543756 89.29674424 153.41481059 90.4375 156.625 C90.76298828 157.52863281 91.08847656 158.43226563 91.42382812 159.36328125 C93.0292727 163.89824841 94.43319834 168.1941606 95 173 C95.66 173 96.32 173 97 173 C97.34611328 174.30710938 97.34611328 174.30710938 97.69921875 175.640625 C100.13948548 184.55290348 103.20638867 192.91135993 107.06640625 201.32421875 C114 216.46936275 114 216.46936275 114 223 C117.09007207 217.18851955 119.29551204 211.48265993 121.1875 205.1875 C121.44724609 204.34251953 121.70699219 203.49753906 121.97460938 202.62695312 C122.45271865 201.07155369 122.92794597 199.51526291 123.39916992 197.95776367 C123.90867236 196.29758487 124.45083824 194.64748528 125 193 C125.66 193 126.32 193 127 193 C127.10183594 192.20335937 127.20367187 191.40671875 127.30859375 190.5859375 C128.17178412 186.10905186 129.58272076 181.93043659 131.0625 177.625 C131.34416016 176.79355469 131.62582031 175.96210938 131.91601562 175.10546875 C132.60657101 173.06891559 133.30272179 171.03426119 134 169 C134.66 169 135.32 169 136 169 C136.15855469 168.44054687 136.31710938 167.88109375 136.48046875 167.3046875 C138.67842546 159.7514882 141.30665281 152.3880749 144 145 C144.66 145 145.32 145 146 145 C146.37125 143.081875 146.37125 143.081875 146.75 141.125 C147.72558815 136.67910541 149.28857213 132.69362306 151.046875 128.5078125 C152.47957057 124.73817906 153.23456138 120.95476618 154 117 C154.66 117 155.32 117 156 117 C156.20625 115.845 156.4125 114.69 156.625 113.5 C158.24479591 106.07990551 161.24650329 99.05691768 164 92 C164.66 92 165.32 92 166 92 C166.09152344 91.21367188 166.18304688 90.42734375 166.27734375 89.6171875 C167.21761004 84.91077353 168.85986798 80.60241648 170.5625 76.125 C171.0565332 74.80628906 171.0565332 74.80628906 171.56054688 73.4609375 C172.36886614 71.30541947 173.18212294 69.15190559 174 67 C174.66 67 175.32 67 176 67 C176.11102051 66.45690186 176.22204102 65.91380371 176.33642578 65.35424805 C177.53264265 59.71778522 179.05774508 54.27824365 180.875 48.8125 C181.11863281 48.04486328 181.36226563 47.27722656 181.61328125 46.48632812 C183.16871828 41.78375037 185.08082038 38.05574546 188 34 C188.53625 32.948125 189.0725 31.89625 189.625 30.8125 C193.57129158 23.78464208 199.77551267 16.66725245 207 13 C207.66 13 208.32 13 209 13 C209.33 12.01 209.66 11.02 210 10 C212.8359375 8.17578125 212.8359375 8.17578125 216.375 6.3125 C217.53773438 5.68988281 218.70046875 5.06726562 219.8984375 4.42578125 C223 3 223 3 226 3 C226 2.34 226 1.68 226 1 C246.44935581 -4.86511613 266.24520611 -5.48974738 285.37475586 4.71142578 C295.45490616 10.29816106 295.45490616 10.29816106 299 14 C300.08173875 14.8354022 301.16516083 15.66862792 302.25 16.5 C306.93771611 20.46806673 310.19639322 25.57174006 313 31 C313 31.99 313 32.98 313 34 C313.66 34 314.32 34 315 34 C324.22201989 53.85198175 324.16034718 73.9003938 316.8125 94.375 C316.21794457 95.92039876 315.61765955 97.46368944 315 99 C314.34 99 313.68 99 313 99 C312.9175 99.804375 312.835 100.60875 312.75 101.4375 C311.79448981 105.97617338 309.97093558 109.82133799 308 114 C305.25684767 119.84640961 303.06743291 125.70161206 301.08203125 131.84765625 C299.31194343 137.00455471 297.16394526 141.99809374 295 147 C294.34 147 293.68 147 293 147 C292.896875 147.83015625 292.79375 148.6603125 292.6875 149.515625 C291.89848573 153.51449277 290.56133918 157.001313 289 160.75 C288.72671875 161.42160156 288.4534375 162.09320313 288.171875 162.78515625 C287.17493567 165.22374805 286.17861835 167.6427633 285 170 C284.34 170 283.68 170 283 170 C282.80289429 171.09380981 282.80289429 171.09380981 282.60180664 172.2097168 C282.04075484 174.81103972 281.3022648 177.15576499 280.37109375 179.64453125 C280.05849609 180.48564453 279.74589844 181.32675781 279.42382812 182.19335938 C279.09833984 183.05767578 278.77285156 183.92199219 278.4375 184.8125 C278.10814453 185.69615234 277.77878906 186.57980469 277.43945312 187.49023438 C276.62965399 189.66143495 275.81641107 191.83127889 275 194 C274.34 194 273.68 194 273 194 C272.896875 194.80953125 272.79375 195.6190625 272.6875 196.453125 C271.85790633 200.73307415 270.48693602 204.66092595 269 208.75 C268.72671875 209.51699219 268.4534375 210.28398437 268.171875 211.07421875 C266.16731366 216.66537267 266.16731366 216.66537267 265 219 C264.34 219 263.68 219 263 219 C262.9175 219.804375 262.835 220.60875 262.75 221.4375 C261.99159231 225.03993653 260.83949795 227.8733735 259.30078125 231.19140625 C257.67103846 234.71028032 256.11516302 238.25908158 254.5625 241.8125 C254.26037598 242.50255127 253.95825195 243.19260254 253.64697266 243.90356445 C251.42241726 248.9975692 249.25896046 254.11470509 247.140625 259.25390625 C246.30109749 261.27509748 245.4351688 263.28537263 244.5546875 265.2890625 C242.79065182 269.39301988 241.33195788 273.59171499 239.875 277.8125 C237.12190083 285.75619835 237.12190083 285.75619835 236 288 C235.34 288 234.68 288 234 288 C233.84144531 288.57105469 233.68289063 289.14210938 233.51953125 289.73046875 C230.97990357 298.55602572 228.19258632 307.49847031 223.5 315.4375 C220.08008142 321.23507625 218.12482085 327.64362102 216 334 C215.34 334 214.68 334 214 334 C213.90847656 335.134375 213.81695312 336.26875 213.72265625 337.4375 C213.11067188 342.33337497 211.40402293 346.50620305 209.4375 351 C208.9434668 352.16208984 208.9434668 352.16208984 208.43945312 353.34765625 C207.63531413 355.23563476 206.81892829 357.1183893 206 359 C205.34 359 204.68 359 204 359 C203.938125 359.763125 203.87625 360.52625 203.8125 361.3125 C200.90853869 374.49201672 191.81901291 385.32626912 184 396 C183.20916016 397.08087891 183.20916016 397.08087891 182.40234375 398.18359375 C176.03773863 406.21821188 167.17011588 411.16299386 158.0625 415.5 C157.32862061 415.85054443 156.59474121 416.20108887 155.83862305 416.56225586 C152.13921965 418.25637517 150.20754477 419 146 419 C146 419.66 146 420.32 146 421 C117.83861468 427.90925554 89.78087359 427.11496943 64.375 411.91015625 C58.90934562 408.35064884 53.72041029 404.50584618 49 400 C49 399.34 49 398.68 49 398 C48.01 397.67 47.02 397.34 46 397 C39.04466 389.88290791 28 376.47573296 28 366 C27.34 365.67 26.68 365.34 26 365 C25.02612305 363.13330078 25.02612305 363.13330078 24.01171875 360.6953125 C23.63748779 359.8069873 23.26325684 358.91866211 22.87768555 358.00341797 C22.48492432 357.05354004 22.09216309 356.10366211 21.6875 355.125 C20.87597307 353.19229946 20.06348266 351.26000318 19.25 349.328125 C18.86070313 348.40064453 18.47140625 347.47316406 18.0703125 346.51757812 C16.83368313 343.60879116 15.52683471 340.73782794 14.1875 337.875 C8 324.42578125 8 324.42578125 8 319 C7.34 319 6.68 319 6 319 C4.84860965 315.77278785 3.70488074 312.54291128 2.5625 309.3125 C2.23701172 308.40048828 1.91152344 307.48847656 1.57617188 306.54882812 C1.26357422 305.66259766 0.95097656 304.77636719 0.62890625 303.86328125 C0.34088135 303.05157471 0.05285645 302.23986816 -0.24389648 301.40356445 C-1.01502174 298.95224766 -1.54182225 296.52686013 -2 294 C-2.66 294 -3.32 294 -4 294 C-4.35191406 293.09121094 -4.70382813 292.18242187 -5.06640625 291.24609375 C-7.69958649 284.51896457 -10.4503608 277.89579469 -13.5625 271.375 C-22.40743072 252.74112638 -22.40743072 252.74112638 -22 246 C-22.66 246 -23.32 246 -24 246 C-24.22139648 245.43603516 -24.44279297 244.87207031 -24.67089844 244.29101562 C-25.69348948 241.69250644 -26.7217069 239.09625775 -27.75 236.5 C-28.09804687 235.613125 -28.44609375 234.72625 -28.8046875 233.8125 C-30.69395188 229.05435267 -32.71495875 224.45151566 -35.05371094 219.8984375 C-36.62251318 216.75111906 -37.9423034 213.51256958 -39.25 210.25 C-39.518125 209.60417969 -39.78625 208.95835937 -40.0625 208.29296875 C-41.42130618 204.91675134 -42 202.70234925 -42 199 C-42.66 199 -43.32 199 -44 199 C-50.98755502 183.102747 -50.98755502 183.102747 -53 176 C-52.67 175.34 -52.34 174.68 -52 174 C-52.66 174 -53.32 174 -54 174 C-54.33209473 173.15405273 -54.33209473 173.15405273 -54.67089844 172.29101562 C-55.69348948 169.69250644 -56.7217069 167.09625775 -57.75 164.5 C-58.09804688 163.613125 -58.44609375 162.72625 -58.8046875 161.8125 C-60.70852013 157.01766227 -62.74373181 152.37483872 -65.10253906 147.78710938 C-66.83994741 144.32741702 -68.21283057 140.71404291 -69.65625 137.125 C-70.68205837 134.73939915 -71.76502388 132.47836671 -72.953125 130.17578125 C-75.08676904 125.96163374 -76.70721454 121.64662225 -78.25 117.1875 C-78.518125 116.43791016 -78.78625 115.68832031 -79.0625 114.91601562 C-80.14312639 111.83126837 -81 109.29243708 -81 106 C-81.66 106 -82.32 106 -83 106 C-84.13382641 102.85727971 -85.2553844 99.71030814 -86.375 96.5625 C-86.85066406 95.24475586 -86.85066406 95.24475586 -87.3359375 93.90039062 C-90.76073829 84.23246341 -92.33103601 75.77806783 -92.25 65.5 C-92.25773437 64.51902344 -92.26546875 63.53804688 -92.2734375 62.52734375 C-92.24872677 53.24846623 -90.45974727 45.45341875 -86.875 36.9375 C-86.59785156 36.26267578 -86.32070312 35.58785156 -86.03515625 34.89257812 C-85.36321054 33.25905493 -84.68255556 31.62911847 -84 30 C-83.34 30 -82.68 30 -82 30 C-81.835 29.195625 -81.67 28.39125 -81.5 27.5625 C-78.83067144 21.22284467 -74.22085899 15.97190834 -68 13 C-67.55785156 12.53980469 -67.11570312 12.07960938 -66.66015625 11.60546875 C-64.22553157 9.25104347 -61.41807038 7.90102746 -58.4375 6.3125 C-57.28121094 5.68988281 -56.12492187 5.06726562 -54.93359375 4.42578125 C-52 3 -52 3 -50 3 C-50 2.34 -50 1.68 -50 1 C-48.29274992 0.51698797 -46.58414026 0.03878042 -44.875 -0.4375 C-43.92367187 -0.70433594 -42.97234375 -0.97117187 -41.9921875 -1.24609375 C-28.01709498 -4.76723325 -13.83664642 -3.43248427 0 0 Z " fill="#7800FF" transform="translate(102,8)"/>
<path d="M0 0 C0 0.66 0 1.32 0 2 C0.639375 2.0825 1.27875 2.165 1.9375 2.25 C14.04017045 5.21391929 22.17722108 12.82421727 29 23 C32.40259513 28.77242425 34.68763327 34.60333096 36.421875 41.06640625 C36.82967554 42.9879808 36.82967554 42.9879808 38 44 C38.09800724 47.00877789 38.1299125 49.99461219 38.12025452 53.00379944 C38.12110894 53.96020512 38.12196337 54.91661079 38.12284368 55.90199846 C38.1245014 59.13268226 38.11897236 62.36331506 38.11352539 65.59399414 C38.11324356 67.89953103 38.11340118 70.20506802 38.1139679 72.51060486 C38.11425602 78.79134487 38.10835698 85.07206597 38.10139394 91.35280156 C38.09516278 97.90849415 38.09455679 104.46418711 38.09336853 111.0198822 C38.09077542 122.03026662 38.08435323 133.04064438 38.07543945 144.05102539 C38.06626611 155.39379847 38.0591849 166.73656966 38.05493164 178.0793457 C38.05466892 178.77803994 38.05440619 179.47673419 38.05413551 180.19660098 C38.05283051 183.70160301 38.05156679 187.20660505 38.05032361 190.7116071 C38.03995006 219.8077426 38.02225681 248.90387121 38 278 C37.34 278 36.68 278 36 278 C35.9071875 278.8353125 35.9071875 278.8353125 35.8125 279.6875 C34.62391695 283.07039021 32.71971006 284.70335595 30 287 C26.6875 288.3125 26.6875 288.3125 24 289 C24 289.66 24 290.32 24 291 C12.84687507 291.1859513 1.6941232 291.32780513 -9.46024036 291.41449738 C-14.6406387 291.45612132 -19.81997098 291.51251276 -24.99975586 291.60351562 C-30.00544789 291.69090227 -35.01011937 291.7383702 -40.01651573 291.75901794 C-41.91948182 291.77371795 -43.82239655 291.80242418 -45.72492409 291.84584045 C-55.99917478 292.07082317 -63.71460747 292.17033261 -72.00761414 285.30847168 C-76.88519091 279.65708253 -77.43575902 274.74054229 -77.38095093 267.58956909 C-77.3856309 266.64960874 -77.39031087 265.70964838 -77.39513266 264.74120438 C-77.40708663 261.59539194 -77.39762349 258.45001481 -77.38818359 255.30419922 C-77.39224927 253.04694871 -77.39759113 250.78970019 -77.40411377 248.53245544 C-77.41779823 242.40198567 -77.41248272 236.27166726 -77.40297651 230.14119482 C-77.39538024 223.72060075 -77.40242596 217.30001963 -77.40713501 210.87942505 C-77.41294481 199.3992792 -77.40361661 187.91921707 -77.388357 176.43908538 C-77.37497328 166.04919983 -77.37726603 155.65941495 -77.39111328 145.26953125 C-77.40720473 133.1902179 -77.41312284 121.11098054 -77.40427649 109.03165257 C-77.39960925 102.64295292 -77.39894852 96.25432244 -77.40888596 89.86562729 C-77.41758538 83.8524369 -77.41147929 77.83943543 -77.39420319 71.82626534 C-77.39025316 69.62532552 -77.39134679 67.42436968 -77.39799118 65.22343636 C-77.46454074 40.92908148 -77.46454074 40.92908148 -73 32 C-72.34 32 -71.68 32 -71 32 C-70.88011719 31.278125 -70.76023437 30.55625 -70.63671875 29.8125 C-68.90351134 22.15661451 -65.28804532 16.54879874 -59 12 C-58.42507813 11.36320313 -57.85015625 10.72640625 -57.2578125 10.0703125 C-54.45106178 7.49664834 -51.41655106 6.16618693 -47.9375 4.75 C-47.31294922 4.481875 -46.68839844 4.21375 -46.04492188 3.9375 C-43.19680207 2.74597069 -41.11788304 2 -38 2 C-38 1.34 -38 0.68 -38 0 C-25.69669782 -4.10110073 -12.43433049 -3.49814924 0 0 Z " fill="#7800FF" transform="translate(527,138)"/>
<path d="M0 0 C0 0.66 0 1.32 0 2 C1.2375 2.309375 1.2375 2.309375 2.5 2.625 C9.7098386 5.45743659 14.45021338 10.02335762 18.7734375 16.36328125 C19.91859569 18.14577918 19.91859569 18.14577918 22 19 C23.11099414 21.08959002 24.14140873 23.22250316 25.125 25.375 C25.66382813 26.53773437 26.20265625 27.70046875 26.7578125 28.8984375 C28 32 28 32 28 35 C28.66 35 29.32 35 30 35 C31.74409647 41.78182532 32.33663822 48.00957108 32.3125 55 C32.32861328 55.93328125 32.34472656 56.8665625 32.36132812 57.828125 C32.36571265 64.10676561 31.39188212 69.20335046 29 75 C28.525625 76.14984375 28.05125 77.2996875 27.5625 78.484375 C24.47416949 84.93898577 21.09091068 90.61653781 16.5 96.125 C15.84257813 96.92309082 15.84257813 96.92309082 15.171875 97.73730469 C11.79757735 101.60037928 8.48956863 103.67575429 4 106 C2.989375 106.53882812 1.97875 107.07765625 0.9375 107.6328125 C-15.37013402 115.91674361 -29.45488123 116.40339132 -47 112 C-47.99 111.67 -48.98 111.34 -50 111 C-50 110.34 -50 109.68 -50 109 C-50.69996094 108.89171875 -51.39992188 108.7834375 -52.12109375 108.671875 C-55.37740358 107.9119221 -58.06137587 106.7221064 -61.0625 105.25 C-62.08472656 104.76015625 -63.10695313 104.2703125 -64.16015625 103.765625 C-67.24529762 101.84749034 -68.86984607 99.91350086 -71 97 C-71.52207031 96.48566406 -72.04414063 95.97132812 -72.58203125 95.44140625 C-74.25059152 93.74526647 -75.43118741 91.95590011 -76.6875 89.9375 C-77.12449219 89.24527344 -77.56148438 88.55304688 -78.01171875 87.83984375 C-79 86 -79 86 -79 84 C-79.66 84 -80.32 84 -81 84 C-89.08982826 66.86315006 -90.18561242 49.83196671 -83.91015625 31.8828125 C-82.98701895 29.56347109 -82.03167991 27.27283798 -81 25 C-80.34 25 -79.68 25 -79 25 C-78.62875 23.700625 -78.62875 23.700625 -78.25 22.375 C-76.91652266 18.77461118 -75.33454766 16.04198635 -73 13 C-72.01 12.67 -71.02 12.34 -70 12 C-69.443125 11.2575 -68.88625 10.515 -68.3125 9.75 C-65.38424565 6.26775158 -62.04394965 4.05698737 -58 2 C-57.34 2 -56.68 2 -56 2 C-56 1.34 -56 0.68 -56 0 C-53.62683882 -0.81822733 -51.2517058 -1.62968707 -48.875 -2.4375 C-48.20984375 -2.66759766 -47.5446875 -2.89769531 -46.859375 -3.13476562 C-30.87835412 -8.54011092 -15.34601657 -6.19742977 0 0 Z " fill="#7800FF" transform="translate(535,9)"/>
<path d="M0 0 C1.45597058 -0.02157114 2.91181178 -0.05566522 4.3671875 -0.10253906 C6.47202089 -0.16968155 8.57417736 -0.19701403 10.67993164 -0.21606445 C11.93974854 -0.24112061 13.19956543 -0.26617676 14.49755859 -0.29199219 C17.87915039 0.4050293 17.87915039 0.4050293 20.82910156 2.69384766 C22.87915039 6.4050293 22.87915039 6.4050293 22.87915039 18.4050293 C9.67915039 18.4050293 -3.52084961 18.4050293 -17.12084961 18.4050293 C-17.12084961 5.4050293 -17.12084961 5.4050293 -15.12084961 1.4050293 C-10.72563467 -0.79257817 -4.88019161 0.05436469 0 0 Z " fill="#7800FF" transform="translate(830.120849609375,65.594970703125)"/>
<path d="M0 0 C2.96111722 2.30309117 4.62415451 4.09354912 6.0625 7.5625 C6 10 6 10 4.5 12.25 C1.25366522 14.52243435 -1.05832993 14.86169579 -5 15 C-7.875 14.1875 -7.875 14.1875 -10 13 C-11.56430248 9.87139505 -11.35627284 7.44397075 -11 4 C-7.70503051 0.22047618 -4.94820177 -0.92778783 0 0 Z " fill="#7800FF" transform="translate(836,222)"/>
</svg>
